<svg id="Layer_1" data-name="Layer 1" xmlns="http://www.w3.org/2000/svg" viewBox="0 0 2000 2000"><defs><style>.cls-1{fill:#007cb4;}.cls-2{fill:#13bdf0;}.cls-3{fill:#096284;}.cls-4{fill:#007db5;}</style></defs><path class="cls-1" d="M495,1249a21.2,21.2,0,0,1-8.82,1.66,20.47,20.47,0,0,1-8-1.49,17.22,17.22,0,0,1-6.07-4.23,18.78,18.78,0,0,1-3.88-6.6,25.12,25.12,0,0,1-1.36-8.47,21.59,21.59,0,0,1,1.49-8.08,21,21,0,0,1,4.06-6.5,18.11,18.11,0,0,1,5.94-4.33,16.76,16.76,0,0,1,7-1.53,18.54,18.54,0,0,1,8.34,1.8,37.11,37.11,0,0,1,5.81,3.44l5-12a39.59,39.59,0,0,0-8.12-3.76,34.6,34.6,0,0,0-11.44-1.74,32.31,32.31,0,0,0-12.75,2.44,28.63,28.63,0,0,0-9.91,6.9,30.83,30.83,0,0,0-6.38,10.57,39.17,39.17,0,0,0-2.23,13.45,34.43,34.43,0,0,0,2.19,12.32,30.74,30.74,0,0,0,6.33,10.21,29.5,29.5,0,0,0,10.13,7,36.22,36.22,0,0,0,13.58,2.76,32.4,32.4,0,0,0,9.08-1,35.62,35.62,0,0,0,6.95-2.62,24.16,24.16,0,0,0,3.88-2.36l-5.24-11.35A20.21,20.21,0,0,1,495,1249Z"/><path class="cls-1" d="M577.5,1207a34.26,34.26,0,0,0-10.52-7.2,32.14,32.14,0,0,0-25.42,0,33.28,33.28,0,0,0-10.43,7.2,33.92,33.92,0,0,0-7,10.53,31.69,31.69,0,0,0-2.54,12.57,32.16,32.16,0,0,0,2.54,12.76,32.9,32.9,0,0,0,17.46,17.46,33.07,33.07,0,0,0,25.42,0,33.76,33.76,0,0,0,10.52-7,32.71,32.71,0,0,0,7.17-10.43,31.83,31.83,0,0,0,2.57-12.76,31.37,31.37,0,0,0-2.57-12.57A33.82,33.82,0,0,0,577.5,1207Zm-4.84,31.1a21.23,21.23,0,0,1-4.11,6.55,18.46,18.46,0,0,1-13.8,6,19.48,19.48,0,0,1-14.28-6,20.55,20.55,0,0,1-5.8-14.55,21.9,21.9,0,0,1,1.48-8.12,20.3,20.3,0,0,1,4.19-6.59,19.31,19.31,0,0,1,6.29-4.41,19.92,19.92,0,0,1,15.55,0,18.9,18.9,0,0,1,6.24,4.41,22,22,0,0,1,4.24,22.71Z"/><polygon class="cls-1" points="652.3 1236.62 607.42 1195.35 606.89 1195.35 606.89 1262.17 619.73 1262.17 619.48 1224.17 664.45 1264.79 664.8 1264.79 664.8 1197.89 652.05 1197.89 652.3 1236.62"/><polygon class="cls-1" points="733.79 1236.62 688.9 1195.35 688.38 1195.35 688.38 1262.17 701.22 1262.17 700.97 1224.17 745.94 1264.79 746.28 1264.79 746.28 1197.89 733.53 1197.89 733.79 1236.62"/><polygon class="cls-1" points="782.53 1236.05 810.13 1236.05 810.13 1223.83 782.53 1223.83 782.53 1210.11 813.71 1210.11 813.71 1197.89 769.87 1197.89 769.87 1262.17 814.93 1262.17 814.93 1249.94 782.53 1249.94 782.53 1236.05"/><path class="cls-1" d="M872.4,1249a21.26,21.26,0,0,1-8.82,1.66,20.43,20.43,0,0,1-8-1.49,17.22,17.22,0,0,1-6.07-4.23,18.8,18.8,0,0,1-3.89-6.6,25.38,25.38,0,0,1-1.35-8.47,21.58,21.58,0,0,1,1.48-8.08,21.14,21.14,0,0,1,4.06-6.5,18.32,18.32,0,0,1,5.94-4.33,16.8,16.8,0,0,1,7-1.53,18.48,18.48,0,0,1,8.34,1.8,36.2,36.2,0,0,1,5.81,3.44l5-12a39.85,39.85,0,0,0-8.12-3.76,34.64,34.64,0,0,0-11.44-1.74,32.39,32.39,0,0,0-12.76,2.44,28.73,28.73,0,0,0-9.91,6.9,30.81,30.81,0,0,0-6.37,10.57,38.93,38.93,0,0,0-2.23,13.45,34.64,34.64,0,0,0,2.18,12.32,31.06,31.06,0,0,0,6.33,10.21,29.64,29.64,0,0,0,10.14,7,36.14,36.14,0,0,0,13.58,2.76,32.44,32.44,0,0,0,9.08-1,35.5,35.5,0,0,0,6.94-2.62,24.86,24.86,0,0,0,3.89-2.36L878,1245.49A20.21,20.21,0,0,1,872.4,1249Z"/><polygon class="cls-1" points="898.51 1210.11 913.54 1210.11 913.54 1262.17 926.2 1262.17 926.2 1210.11 941.83 1210.11 941.83 1197.89 898.51 1197.89 898.51 1210.11"/><rect class="cls-1" x="961.05" y="1197.89" width="12.66" height="64.28"/><polygon class="cls-1" points="1021.69 1234.12 1006.99 1197.89 991.79 1197.89 1021.14 1265.14 1050.48 1197.89 1035.46 1197.89 1021.69 1234.12"/><polygon class="cls-1" points="1081.22 1236.05 1108.82 1236.05 1108.82 1223.83 1081.22 1223.83 1081.22 1210.11 1112.4 1210.11 1112.4 1197.89 1068.56 1197.89 1068.56 1262.17 1113.63 1262.17 1113.63 1249.94 1081.22 1249.94 1081.22 1236.05"/><polygon class="cls-1" points="1210.48 1223.83 1181.75 1223.83 1181.75 1197.89 1169.08 1197.89 1169.08 1262.17 1181.75 1262.17 1181.75 1236.05 1210.48 1236.05 1210.48 1262.17 1223.15 1262.17 1223.15 1197.89 1210.48 1197.89 1210.48 1223.83"/><polygon class="cls-1" points="1259.39 1236.05 1286.99 1236.05 1286.99 1223.83 1259.39 1223.83 1259.39 1210.11 1290.57 1210.11 1290.57 1197.89 1246.73 1197.89 1246.73 1262.17 1291.79 1262.17 1291.79 1249.94 1259.39 1249.94 1259.39 1236.05"/><path class="cls-1" d="M1333.63,1195.35l-29,66.82h12.49l5.24-12.58h21.33l5,12.58h14.67l-29-66.82Zm-6.84,43.59,6.53-15.68,6.18,15.68Z"/><polygon class="cls-1" points="1392.32 1197.89 1379.65 1197.89 1379.65 1262.17 1422.54 1262.17 1422.54 1249.94 1392.32 1249.94 1392.32 1197.89"/><polygon class="cls-1" points="1429.7 1210.11 1444.72 1210.11 1444.72 1262.17 1457.39 1262.17 1457.39 1210.11 1473.02 1210.11 1473.02 1197.89 1429.7 1197.89 1429.7 1210.11"/><polygon class="cls-1" points="1533.63 1197.89 1533.63 1223.83 1504.9 1223.83 1504.9 1197.89 1492.23 1197.89 1492.23 1262.17 1504.9 1262.17 1504.9 1236.05 1533.63 1236.05 1533.63 1262.17 1546.3 1262.17 1546.3 1197.89 1533.63 1197.89"/><path class="cls-2" d="M567.82,1286.18a4.34,4.34,0,0,1,2.53-.65,8.6,8.6,0,0,1,2.78.51,19.31,19.31,0,0,1,2.92,1.3l1.88-3.79a17.43,17.43,0,0,0-3.4-1.71,14.13,14.13,0,0,0-4.94-.72,9.51,9.51,0,0,0-4.09,1.05,6.77,6.77,0,0,0-2.75,2.54,7.18,7.18,0,0,0-1,3.79,6.13,6.13,0,0,0,2.41,5.14,12.47,12.47,0,0,0,2.31,1.42c.82.39,1.61.73,2.39,1a10.59,10.59,0,0,1,1.82.88,5.1,5.1,0,0,1,1.34,1.13,2.13,2.13,0,0,1,.49,1.37,2.32,2.32,0,0,1-.6,1.7,3.36,3.36,0,0,1-1.5.88,6.55,6.55,0,0,1-1.79.25,8,8,0,0,1-1.95-.27,11.32,11.32,0,0,1-2.1-.77,12.25,12.25,0,0,1-1.93-1.14l-2.19,3.86a15.32,15.32,0,0,0,2.77,1.52,15.53,15.53,0,0,0,2.92.88,14.75,14.75,0,0,0,2.92.29,10.08,10.08,0,0,0,4.72-1,7.33,7.33,0,0,0,2.9-2.65,6.75,6.75,0,0,0,1-3.55,8.09,8.09,0,0,0-.51-3.06,6,6,0,0,0-1.37-2.08,7.88,7.88,0,0,0-1.93-1.4,19.86,19.86,0,0,0-2.17-1,21.52,21.52,0,0,1-2.3-1,6.49,6.49,0,0,1-1.81-1.25,2.15,2.15,0,0,1-.7-1.58A2.21,2.21,0,0,1,567.82,1286.18Z"/><path class="cls-2" d="M600.23,1297.11a4.15,4.15,0,0,1-.7,2.29,5.28,5.28,0,0,1-1.89,1.77,5.39,5.39,0,0,1-2.74.69,5,5,0,0,1-2.57-.69,5.48,5.48,0,0,1-1.9-1.77,4.1,4.1,0,0,1-.72-2.29v-15.85h-5v16a8.8,8.8,0,0,0,1.37,4.9,9.49,9.49,0,0,0,3.67,3.35,10.75,10.75,0,0,0,5.1,1.21,11,11,0,0,0,5.16-1.21,9.48,9.48,0,0,0,3.69-3.35,8.88,8.88,0,0,0,1.37-4.9v-16h-4.89Z"/><path class="cls-2" d="M626.7,1282.3a12,12,0,0,0-5.26-1h-7.61v25.14h4.95v-8h3.55a9.89,9.89,0,0,0,4.15-.77,7.13,7.13,0,0,0,2.7-2,8.27,8.27,0,0,0,1.47-2.82,10.67,10.67,0,0,0,.46-3.09,8.63,8.63,0,0,0-1.13-4.49A7.53,7.53,0,0,0,626.7,1282.3ZM626,1291a4.12,4.12,0,0,1-.62,1.24,3.19,3.19,0,0,1-1.17,1,3.93,3.93,0,0,1-1.88.4h-3.52V1286h3.55a4.08,4.08,0,0,1,2.07.45,3,3,0,0,1,1.14,1.09,4.09,4.09,0,0,1,.5,1.28,5.72,5.72,0,0,1,.12,1A4.43,4.43,0,0,1,626,1291Z"/><path class="cls-2" d="M651.16,1282.3a12.06,12.06,0,0,0-5.26-1h-7.62v25.14h5v-8h3.55a9.89,9.89,0,0,0,4.15-.77,7.21,7.21,0,0,0,2.7-2,8.27,8.27,0,0,0,1.47-2.82,11,11,0,0,0,.46-3.09,8.63,8.63,0,0,0-1.13-4.49A7.59,7.59,0,0,0,651.16,1282.3Zm-.73,8.7a4.12,4.12,0,0,1-.62,1.24,3.22,3.22,0,0,1-1.18,1,3.91,3.91,0,0,1-1.88.4h-3.51V1286h3.55a4.06,4.06,0,0,1,2.06.45,3,3,0,0,1,1.15,1.09,4.06,4.06,0,0,1,.49,1.28,5.72,5.72,0,0,1,.12,1A4.36,4.36,0,0,1,650.43,1291Z"/><path class="cls-2" d="M683.08,1284.83A13.73,13.73,0,0,0,679,1282a12.62,12.62,0,0,0-9.94,0,13.19,13.19,0,0,0-4.08,2.82,13.34,13.34,0,0,0-2.75,4.12,12.38,12.38,0,0,0-1,4.91,12.59,12.59,0,0,0,1,5,12.82,12.82,0,0,0,2.75,4.08,12.68,12.68,0,0,0,9.07,3.74,12.5,12.5,0,0,0,5-1,13.17,13.17,0,0,0,4.12-2.75,12.8,12.8,0,0,0,2.8-4.08,12.43,12.43,0,0,0,1-5,12.22,12.22,0,0,0-1-4.91A13.31,13.31,0,0,0,683.08,1284.83Zm-1.9,12.16a8.14,8.14,0,0,1-1.6,2.56,7.37,7.37,0,0,1-2.41,1.73,7.27,7.27,0,0,1-3,.61,7.68,7.68,0,0,1-3.09-.61,7.59,7.59,0,0,1-2.49-1.73,8,8,0,0,1-1.68-2.56,8.11,8.11,0,0,1-.59-3.13,8.5,8.5,0,0,1,.58-3.17,7.73,7.73,0,0,1,1.64-2.58,7.53,7.53,0,0,1,2.45-1.73,7.88,7.88,0,0,1,6.08,0,7.43,7.43,0,0,1,2.45,1.73,8.41,8.41,0,0,1,1.64,2.58,8.51,8.51,0,0,1,.59,3.17A8.3,8.3,0,0,1,681.18,1297Z"/><path class="cls-2" d="M710.06,1295.61a8,8,0,0,0,1.51-2.8,11,11,0,0,0,.46-3.08,9.06,9.06,0,0,0-.65-3.5,7.42,7.42,0,0,0-1.9-2.66,8.54,8.54,0,0,0-3.09-1.71,13.56,13.56,0,0,0-4.2-.6h-7.62v25.14h5v-8h3.29l5.31,8h5.78l-5.86-9.14A7,7,0,0,0,710.06,1295.61ZM699.53,1286h3.55a4.06,4.06,0,0,1,2.06.45,3,3,0,0,1,1.15,1.09,4.06,4.06,0,0,1,.49,1.28,5.8,5.8,0,0,1,.12,1,4.29,4.29,0,0,1-.18,1.18,4.09,4.09,0,0,1-.62,1.21,3.16,3.16,0,0,1-1.18,1,4.19,4.19,0,0,1-1.88.38h-3.51Z"/><polygon class="cls-2" points="715.89 1286.04 721.76 1286.04 721.76 1306.4 726.71 1306.4 726.71 1286.04 732.83 1286.04 732.83 1281.26 715.89 1281.26 715.89 1286.04"/><rect class="cls-2" x="740.34" y="1281.26" width="4.95" height="25.14"/><polygon class="cls-2" points="772.27 1296.41 754.72 1280.27 754.52 1280.27 754.52 1306.4 759.54 1306.4 759.44 1291.54 777.03 1307.43 777.16 1307.43 777.16 1281.26 772.18 1281.26 772.27 1296.41"/><path class="cls-2" d="M797.42,1298h4.34v3a4.87,4.87,0,0,1-1.51.5,11.67,11.67,0,0,1-1.94.15,10.55,10.55,0,0,1-3.37-.51,7.5,7.5,0,0,1-2.63-1.5,6.86,6.86,0,0,1-1.72-2.41,8,8,0,0,1-.62-3.2,10.26,10.26,0,0,1,.55-3.53,6.49,6.49,0,0,1,1.62-2.55,6.87,6.87,0,0,1,2.65-1.53,11.72,11.72,0,0,1,3.62-.51,9.14,9.14,0,0,1,1.88.22,18.77,18.77,0,0,1,2.08.56,11,11,0,0,1,1.64.68l1.61-4.61a14.81,14.81,0,0,0-3.42-1.31,17.11,17.11,0,0,0-4.44-.53,14.61,14.61,0,0,0-4.9.82,11.31,11.31,0,0,0-4.13,2.51,11.89,11.89,0,0,0-2.84,4.23,15.89,15.89,0,0,0-1,6,12.62,12.62,0,0,0,.92,4.85,11,11,0,0,0,2.66,3.84,12.42,12.42,0,0,0,4.21,2.53,16,16,0,0,0,5.53.9,12.83,12.83,0,0,0,2.46-.25,22.06,22.06,0,0,0,2.54-.67,14.91,14.91,0,0,0,2.21-.9,5.33,5.33,0,0,0,1.4-1v-10.62h-9.36Z"/><path class="cls-2" d="M841.86,1282.3a12.09,12.09,0,0,0-5.26-1H829v25.14h4.95v-8h3.55a9.86,9.86,0,0,0,4.15-.77,7.13,7.13,0,0,0,2.7-2,8.27,8.27,0,0,0,1.47-2.82,10.67,10.67,0,0,0,.46-3.09,8.53,8.53,0,0,0-1.13-4.49A7.56,7.56,0,0,0,841.86,1282.3Zm-.74,8.7a4.09,4.09,0,0,1-.61,1.24,3.31,3.31,0,0,1-1.18,1,3.93,3.93,0,0,1-1.88.4h-3.52V1286h3.55a4.08,4.08,0,0,1,2.07.45,3,3,0,0,1,1.14,1.09,4.09,4.09,0,0,1,.5,1.28,5.72,5.72,0,0,1,.12,1A4,4,0,0,1,841.12,1291Z"/><path class="cls-2" d="M868.92,1295.61a8,8,0,0,0,1.51-2.8,11,11,0,0,0,.46-3.08,9.06,9.06,0,0,0-.65-3.5,7.3,7.3,0,0,0-1.9-2.66,8.54,8.54,0,0,0-3.09-1.71,13.56,13.56,0,0,0-4.2-.6h-7.62v25.14h5v-8h3.3l5.31,8h5.77l-5.86-9.14A7,7,0,0,0,868.92,1295.61ZM858.39,1286h3.55a4.13,4.13,0,0,1,2.07.45,3,3,0,0,1,1.14,1.09,4.09,4.09,0,0,1,.5,1.28,5.8,5.8,0,0,1,.12,1,4.32,4.32,0,0,1-.19,1.18,3.86,3.86,0,0,1-.62,1.21,3.16,3.16,0,0,1-1.18,1,4.15,4.15,0,0,1-1.87.38h-3.52Z"/><path class="cls-2" d="M898.54,1284.83a13.73,13.73,0,0,0-4.12-2.82,12.62,12.62,0,0,0-9.94,0,13.19,13.19,0,0,0-4.08,2.82,13.34,13.34,0,0,0-2.75,4.12,12.38,12.38,0,0,0-1,4.91,12.59,12.59,0,0,0,1,5,12.82,12.82,0,0,0,2.75,4.08,12.68,12.68,0,0,0,9.07,3.74,12.5,12.5,0,0,0,4.95-1,13.17,13.17,0,0,0,4.12-2.75,12.8,12.8,0,0,0,2.8-4.08,12.43,12.43,0,0,0,1-5,12.22,12.22,0,0,0-1-4.91A13.31,13.31,0,0,0,898.54,1284.83Zm-1.9,12.16a8.14,8.14,0,0,1-1.6,2.56,7.37,7.37,0,0,1-2.41,1.73,7.27,7.27,0,0,1-3,.61,7.55,7.55,0,0,1-5.58-2.34,8,8,0,0,1-1.68-2.56,8.12,8.12,0,0,1-.6-3.13,8.51,8.51,0,0,1,.59-3.17,7.86,7.86,0,0,1,1.63-2.58,7.71,7.71,0,0,1,8.54-1.73,7.43,7.43,0,0,1,2.45,1.73,8.41,8.41,0,0,1,1.64,2.58,8.51,8.51,0,0,1,.59,3.17A8.3,8.3,0,0,1,896.64,1297Z"/><polygon class="cls-2" points="917.87 1295.43 912.12 1281.26 906.17 1281.26 917.65 1307.56 929.13 1281.26 923.25 1281.26 917.87 1295.43"/><rect class="cls-2" x="936.2" y="1281.26" width="4.95" height="25.14"/><path class="cls-2" d="M968.63,1285.39a11.4,11.4,0,0,0-4.29-3,16.55,16.55,0,0,0-6.45-1.13h-7.52v25.14h8.75a14,14,0,0,0,4.85-.84,12,12,0,0,0,4-2.42,11.69,11.69,0,0,0,2.75-3.83,12.14,12.14,0,0,0,1-5,15.07,15.07,0,0,0-.75-4.68A12.13,12.13,0,0,0,968.63,1285.39Zm-2.6,11.87a6.3,6.3,0,0,1-1.71,2.41,7.51,7.51,0,0,1-2.64,1.45,11.16,11.16,0,0,1-3.42.5h-2.94V1286h4a8.73,8.73,0,0,1,2.09.32,7.38,7.38,0,0,1,2.41,1.18,6.78,6.78,0,0,1,2,2.41,8.8,8.8,0,0,1,.8,4A8.6,8.6,0,0,1,966,1297.26Z"/><polygon class="cls-2" points="984.39 1296.19 995.18 1296.19 995.18 1291.41 984.39 1291.41 984.39 1286.04 996.59 1286.04 996.59 1281.26 979.44 1281.26 979.44 1306.4 997.06 1306.4 997.06 1301.62 984.39 1301.62 984.39 1296.19"/><path class="cls-2" d="M1020.41,1295.61a8.18,8.18,0,0,0,1.5-2.8,10.6,10.6,0,0,0,.46-3.08,8.88,8.88,0,0,0-.65-3.5,7.28,7.28,0,0,0-1.89-2.66,8.54,8.54,0,0,0-3.09-1.71,13.56,13.56,0,0,0-4.2-.6h-7.62v25.14h5v-8h3.3l5.31,8h5.77l-5.85-9.14A7.11,7.11,0,0,0,1020.41,1295.61Zm-10.54-9.57h3.55a4.08,4.08,0,0,1,2.07.45,3,3,0,0,1,1.14,1.09,4.09,4.09,0,0,1,.5,1.28,5.8,5.8,0,0,1,.12,1,4,4,0,0,1-.19,1.18,3.83,3.83,0,0,1-.61,1.21,3.24,3.24,0,0,1-1.18,1,4.19,4.19,0,0,1-1.88.38h-3.52Z"/><path class="cls-2" d="M1036.27,1286.18a4.37,4.37,0,0,1,2.53-.65,8.61,8.61,0,0,1,2.79.51,19.31,19.31,0,0,1,2.92,1.3l1.87-3.79a17.33,17.33,0,0,0-3.39-1.71,14.17,14.17,0,0,0-4.94-.72,9.56,9.56,0,0,0-4.1,1.05,6.9,6.9,0,0,0-2.75,2.54,7.17,7.17,0,0,0-1,3.79,6.07,6.07,0,0,0,2.41,5.14,12.07,12.07,0,0,0,2.3,1.42c.82.39,1.62.73,2.39,1a11.06,11.06,0,0,1,1.83.88,5,5,0,0,1,1.33,1.13,2.14,2.14,0,0,1,.5,1.37,2.32,2.32,0,0,1-.6,1.7,3.42,3.42,0,0,1-1.5.88,6.62,6.62,0,0,1-1.8.25,7.85,7.85,0,0,1-1.94-.27,11.32,11.32,0,0,1-2.1-.77,11.81,11.81,0,0,1-1.93-1.14l-2.19,3.86a14.87,14.87,0,0,0,5.69,2.4,14.67,14.67,0,0,0,2.92.29,10,10,0,0,0,4.71-1,7.36,7.36,0,0,0,2.91-2.65,6.75,6.75,0,0,0,1-3.55,7.89,7.89,0,0,0-.52-3.06,6,6,0,0,0-1.36-2.08,8.07,8.07,0,0,0-1.93-1.4,19.86,19.86,0,0,0-2.17-1,21.69,21.69,0,0,1-2.31-1,6.64,6.64,0,0,1-1.81-1.25,2.19,2.19,0,0,1-.7-1.58A2.23,2.23,0,0,1,1036.27,1286.18Z"/><rect class="cls-2" x="1067.56" y="1281.26" width="4.95" height="25.14"/><polygon class="cls-2" points="1099.49 1296.41 1081.94 1280.27 1081.74 1280.27 1081.74 1306.4 1086.76 1306.4 1086.66 1291.54 1104.25 1307.43 1104.38 1307.43 1104.38 1281.26 1099.39 1281.26 1099.49 1296.41"/><path class="cls-2" d="M1142.06,1301.24a8.23,8.23,0,0,1-3.45.65,8,8,0,0,1-3.13-.58,6.73,6.73,0,0,1-2.37-1.66,7.24,7.24,0,0,1-1.52-2.57,9.8,9.8,0,0,1-.53-3.32,8.27,8.27,0,0,1,2.17-5.7,7.11,7.11,0,0,1,2.32-1.69,6.55,6.55,0,0,1,2.75-.6,7.21,7.21,0,0,1,3.26.7,14.43,14.43,0,0,1,2.27,1.35l2-4.68a15.91,15.91,0,0,0-3.18-1.47,13.59,13.59,0,0,0-4.47-.68,12.82,12.82,0,0,0-5,1,11.26,11.26,0,0,0-3.87,2.7,11.86,11.86,0,0,0-2.5,4.14,15.24,15.24,0,0,0-.87,5.26,13.67,13.67,0,0,0,.85,4.81,12.17,12.17,0,0,0,2.48,4,11.58,11.58,0,0,0,4,2.75,14.07,14.07,0,0,0,5.31,1.07,12.13,12.13,0,0,0,3.56-.41,13.29,13.29,0,0,0,2.71-1,9.49,9.49,0,0,0,1.52-.92l-2-4.44A8,8,0,0,1,1142.06,1301.24Z"/><path class="cls-2" d="M1162.48,1280.27l-11.34,26.13H1156l2-4.92h8.34l1.94,4.92h5.74l-11.34-26.13Zm-2.67,17,2.55-6.12,2.42,6.12Z"/><path class="cls-2" d="M1196,1295.61a8,8,0,0,0,1.51-2.8,11,11,0,0,0,.46-3.08,9.06,9.06,0,0,0-.65-3.5,7.3,7.3,0,0,0-1.9-2.66,8.54,8.54,0,0,0-3.09-1.71,13.56,13.56,0,0,0-4.2-.6h-7.62v25.14h5v-8h3.29l5.31,8h5.78l-5.86-9.14A7,7,0,0,0,1196,1295.61Zm-10.53-9.57H1189a4.13,4.13,0,0,1,2.07.45,3,3,0,0,1,1.14,1.09,4.06,4.06,0,0,1,.49,1.28,5.8,5.8,0,0,1,.12,1,4.29,4.29,0,0,1-.18,1.18,3.86,3.86,0,0,1-.62,1.21,3.16,3.16,0,0,1-1.18,1,4.16,4.16,0,0,1-1.88.38h-3.51Z"/><polygon class="cls-2" points="1211.6 1296.19 1222.39 1296.19 1222.39 1291.41 1211.6 1291.41 1211.6 1286.04 1223.79 1286.04 1223.79 1281.26 1206.65 1281.26 1206.65 1306.4 1224.27 1306.4 1224.27 1301.62 1211.6 1301.62 1211.6 1296.19"/><path class="cls-2" d="M1264.22,1285.39a11.4,11.4,0,0,0-4.29-3,16.55,16.55,0,0,0-6.45-1.13H1246v25.14h8.75a14,14,0,0,0,4.85-.84,12,12,0,0,0,4-2.42,11.69,11.69,0,0,0,2.75-3.83,12.14,12.14,0,0,0,1-5,15.07,15.07,0,0,0-.75-4.68A12.13,12.13,0,0,0,1264.22,1285.39Zm-2.6,11.87a6.3,6.3,0,0,1-1.71,2.41,7.51,7.51,0,0,1-2.64,1.45,11.16,11.16,0,0,1-3.42.5h-2.94V1286h4a8.73,8.73,0,0,1,2.09.32,7.38,7.38,0,0,1,2.41,1.18,6.78,6.78,0,0,1,2,2.41,8.8,8.8,0,0,1,.8,4A8.6,8.6,0,0,1,1261.62,1297.26Z"/><polygon class="cls-2" points="1279.98 1296.19 1290.78 1296.19 1290.78 1291.41 1279.98 1291.41 1279.98 1286.04 1292.17 1286.04 1292.17 1281.26 1275.03 1281.26 1275.03 1306.4 1292.65 1306.4 1292.65 1301.62 1279.98 1301.62 1279.98 1296.19"/><polygon class="cls-2" points="1305.46 1281.26 1300.51 1281.26 1300.51 1306.4 1317.28 1306.4 1317.28 1301.62 1305.46 1301.62 1305.46 1281.26"/><rect class="cls-2" x="1325.14" y="1281.26" width="4.95" height="25.14"/><polygon class="cls-2" points="1348.85 1295.43 1343.1 1281.26 1337.16 1281.26 1348.63 1307.56 1360.11 1281.26 1354.24 1281.26 1348.85 1295.43"/><polygon class="cls-2" points="1372.13 1296.19 1382.93 1296.19 1382.93 1291.41 1372.13 1291.41 1372.13 1286.04 1384.33 1286.04 1384.33 1281.26 1367.18 1281.26 1367.18 1306.4 1384.81 1306.4 1384.81 1301.62 1372.13 1301.62 1372.13 1296.19"/><path class="cls-2" d="M1408.15,1295.61a8,8,0,0,0,1.51-2.8,11,11,0,0,0,.46-3.08,9.06,9.06,0,0,0-.65-3.5,7.3,7.3,0,0,0-1.9-2.66,8.54,8.54,0,0,0-3.09-1.71,13.56,13.56,0,0,0-4.2-.6h-7.62v25.14h5v-8h3.29l5.31,8H1412l-5.86-9.14A7,7,0,0,0,1408.15,1295.61Zm-10.53-9.57h3.55a4.06,4.06,0,0,1,2.06.45,3,3,0,0,1,1.15,1.09,4.06,4.06,0,0,1,.49,1.28,5.8,5.8,0,0,1,.12,1,4.29,4.29,0,0,1-.18,1.18,3.86,3.86,0,0,1-.62,1.21,3.16,3.16,0,0,1-1.18,1,4.19,4.19,0,0,1-1.88.38h-3.51Z"/><polygon class="cls-2" points="1433.41 1281.26 1427.78 1292.87 1422 1281.26 1415.89 1281.26 1425.15 1298.58 1425.15 1306.4 1430.1 1306.4 1430.1 1298.58 1439.53 1281.26 1433.41 1281.26"/><polygon class="cls-2" points="1455.79 1291.11 1546.3 1293.92 1455.79 1296.72 1455.79 1291.11"/><polygon class="cls-2" points="544.21 1296.72 453.7 1293.92 544.21 1291.11 544.21 1296.72"/><path class="cls-2" d="M944.53,884.61s33.29-63.11,122.82-58.68a158.12,158.12,0,0,1,78.62,25.4c13.37,8.74,24.85,20,32.56,34.08,8.57,15.62,13.64,34,12,52.06-2,21.32-14.78,37.72-28,53.65l-2.28,2.73c-.22.26-1.18,1.8-1.55,1.83,0,0,87.16-7.47,89-79.09,1.55-60.65-53.5-103.06-107.74-116-42.75-10.17-91.64-9.78-131,11.91C1008.87,812.53,953.9,842.81,944.53,884.61Z"/><path class="cls-3" d="M1007.39,856.85s71.3-2.73,112.22,77a158.09,158.09,0,0,1,17.32,80.79c-.88,15.95-4.89,31.51-13.23,45.24-9.25,15.23-22.65,28.83-39.11,36.39-19.45,9-40,6.06-60.47,2.55l-3.51-.61c-.34-.06-2.15-.13-2.36-.43,0,0,50,71.75,113,37.52,53.3-29,62.51-97.87,46.57-151.29-12.57-42.11-37.35-84.26-75.82-107.5C1102,876.53,1048.27,844.07,1007.39,856.85Z"/><path class="cls-4" d="M1062.86,897.41s38,60.38-10.59,135.7A158.12,158.12,0,0,1,991,1088.5c-14.26,7.21-29.74,11.52-45.8,11.16-17.82-.39-36.29-5.2-51.07-15.67-17.48-12.38-25.27-31.66-32.44-51.1-.42-1.12-.82-2.23-1.23-3.35-.12-.31-1-1.91-.81-2.25,0,0-37.11,79.22,24,116.61,51.75,31.66,116,5.2,154.3-35.33,30.19-31.94,54.3-74.47,55.2-119.4C1093.12,989.17,1094.37,926.43,1062.86,897.41Z"/><path class="cls-2" d="M1055.47,965.73s-33.29,63.11-122.82,58.67A158.11,158.11,0,0,1,854,999c-13.37-8.74-24.85-20-32.56-34.08-8.57-15.63-13.64-34-12-52.07,2-21.32,14.78-37.71,28-53.64l2.28-2.74c.22-.26,1.18-1.79,1.55-1.82,0,0-87.16,7.47-89,79.08-1.55,60.65,53.5,103.07,107.74,116,42.75,10.18,91.64,9.79,131-11.9C991.13,1037.81,1046.1,1007.53,1055.47,965.73Z"/><path class="cls-3" d="M992.61,993.49s-71.3,2.73-112.22-77a158,158,0,0,1-17.32-80.78c.88-16,4.89-31.52,13.23-45.25,9.25-15.22,22.65-28.82,39.11-36.39,19.45-8.94,40.05-6,60.47-2.54l3.51.61c.34.06,2.15.12,2.36.42,0,0-50-71.74-113-37.52-53.3,29-62.51,97.87-46.57,151.3,12.57,42.11,37.35,84.25,75.82,107.5C898,973.81,951.73,1006.27,992.61,993.49Z"/><path class="cls-4" d="M1147.36,802.6c-2.49-.71-5-1.38-7.49-2-3-.7-6-1.38-9.1-2-5.73-12.55-13.09-24-24.85-32.32-14.8-10.47-33.28-15.27-51.08-15.67-16.07-.36-31.54,4-45.8,11.18a158,158,0,0,0-61.31,55.38c-48.6,75.31-10.58,135.68-10.58,135.68-31.51-29-30.27-91.74-30.27-91.74.89-44.93,25-87.47,55.2-119.4,38.28-40.52,102.56-67,154.31-35.33C1157.9,731.83,1154.08,776.56,1147.36,802.6Z"/></svg>